<svg id="Group_23" data-name="Group 23" xmlns="http://www.w3.org/2000/svg" xmlns:xlink="http://www.w3.org/1999/xlink" width="427.953" height="264.142" viewBox="0 0 427.953 264.142">
  <defs>
    <clipPath id="clip-path">
      <rect id="Rectangle_29" data-name="Rectangle 29" width="427.953" height="264.142" fill="none"/>
    </clipPath>
  </defs>
  <path id="Path_93" data-name="Path 93" d="M193.726,25.444V2.4h3.22V22.617h10.58v2.827Z" transform="translate(-99.991 -1.24)" fill="#b55a45"/>
  <g id="Group_22" data-name="Group 22">
    <g id="Group_21" data-name="Group 21" clip-path="url(#clip-path)">
      <path id="Path_94" data-name="Path 94" d="M235.733,28.146a5.584,5.584,0,0,0,3.441-1.325,7.415,7.415,0,0,0,2.459-4.018v-1.9a7.87,7.87,0,0,1-2,.589c-.766.115-1.551.246-2.353.376a14.185,14.185,0,0,0-2.238.54,4.011,4.011,0,0,0-1.674,1.047,2.729,2.729,0,0,0-.646,1.928,2.566,2.566,0,0,0,.815,2.025,3.163,3.163,0,0,0,2.192.736m-.916,2.582a5.815,5.815,0,0,1-3.735-1.224,4.545,4.545,0,0,1-1.535-3.775,4.954,4.954,0,0,1,.717-2.811,5.051,5.051,0,0,1,1.905-1.669,10.738,10.738,0,0,1,2.6-.929c.94-.212,1.905-.392,2.884-.524a23.922,23.922,0,0,0,2.426-.425,2.422,2.422,0,0,0,1.186-.556,1.475,1.475,0,0,0,.335-1.047,3.107,3.107,0,0,0-.981-2.385,3.9,3.9,0,0,0-2.794-.929,6.262,6.262,0,0,0-2.091.357,4.006,4.006,0,0,0-1.78,1.227A4.445,4.445,0,0,0,233,18.324l-2.9-.769a6.113,6.113,0,0,1,2.59-4.345,8.821,8.821,0,0,1,5.1-1.456,7.617,7.617,0,0,1,4.168.981,5.462,5.462,0,0,1,2.165,2.615,9.862,9.862,0,0,1,.654,3.645v3.727c0,1.191.016,2.451.063,3.792s.117,2.6.212,3.757h-2.971c-.016-.864-.041-1.7-.049-2.532-.008-.818-.008-1.682.014-2.565h-.414A8.944,8.944,0,0,1,240.3,27.95a6.724,6.724,0,0,1-2.29,2.025,6.657,6.657,0,0,1-3.195.752" transform="translate(-118.48 -6.067)" fill="#b55a45"/>
      <path id="Path_95" data-name="Path 95" d="M272.262,30.272V20.008l-.041-7.794h2.9l-.381,6.7h.488c.393-2.6,1.145-4.446,2.255-5.523a5.665,5.665,0,0,1,4.168-1.636,5.594,5.594,0,0,1,3.1.8,5.358,5.358,0,0,1,1.846,2.124,9.84,9.84,0,0,1,.891,2.86,19.553,19.553,0,0,1,.245,3.056v9.675h-3.211v-9.25c0-.573-.033-1.211-.09-1.944a8.94,8.94,0,0,0-.417-2.11,3.627,3.627,0,0,0-1.1-1.682,3.194,3.194,0,0,0-2.164-.654,4.041,4.041,0,0,0-2.844,1.079,6.856,6.856,0,0,0-1.8,3.023,14.986,14.986,0,0,0-.662,4.477v7.061Z" transform="translate(-140.506 -6.067)" fill="#b55a45"/>
      <path id="Path_96" data-name="Path 96" d="M321.732,21.9a4.209,4.209,0,0,0,2.32-.638,5.3,5.3,0,0,0,1.657-1.617,8.078,8.078,0,0,0,1.014-2.11,6.984,6.984,0,0,0,.352-2.091v-.36a7.394,7.394,0,0,0-.3-1.944,8,8,0,0,0-.924-2.172,5.6,5.6,0,0,0-1.625-1.751,4.173,4.173,0,0,0-2.426-.7,3.961,3.961,0,0,0-3.506,1.9,8.686,8.686,0,0,0-1.243,4.853,8.435,8.435,0,0,0,1.243,4.823,3.937,3.937,0,0,0,3.441,1.813m-.7,2.762a6.419,6.419,0,0,1-5.27-2.517,11.022,11.022,0,0,1-2-7,13.158,13.158,0,0,1,.859-4.967,7.478,7.478,0,0,1,2.459-3.3,6.346,6.346,0,0,1,3.85-1.194,5.548,5.548,0,0,1,3.138.834,6,6,0,0,1,2.026,2.205,11.016,11.016,0,0,1,1.12,3.22h.524c-.188-1.24-.344-2.418-.474-3.56a28.667,28.667,0,0,1-.188-3.007V0h3.211l-.032,15.64.032,8.563h-2.9l.245-5.343h-.491a8.962,8.962,0,0,1-2.094,4.267,5.341,5.341,0,0,1-4.018,1.535" transform="translate(-161.948 -0.001)" fill="#b55a45"/>
      <path id="Path_97" data-name="Path 97" d="M365.132,22.03a4.886,4.886,0,0,0,3.211-.932,3.046,3.046,0,0,0,1.118-2.484,3.426,3.426,0,0,0-1.153-2.68,4.757,4.757,0,0,0-3.282-1.031,4.931,4.931,0,0,0-3.285,1.014,3.229,3.229,0,0,0-1.186,2.582,3.138,3.138,0,0,0,1.2,2.549,5.212,5.212,0,0,0,3.375.981M364.674,33.8a14.94,14.94,0,0,0,5.2-.638,2.161,2.161,0,0,0,1.535-2.042,1.972,1.972,0,0,0-.431-1.357,2.442,2.442,0,0,0-1.12-.655,6.809,6.809,0,0,0-1.4-.245c-.482-.03-.908-.049-1.276-.049h-4.223a6.344,6.344,0,0,0-2.691,1.259,2.1,2.1,0,0,0-.736,1.57,1.6,1.6,0,0,0,.679,1.4,4.205,4.205,0,0,0,1.84.622,24.68,24.68,0,0,0,2.614.131m.033,2.729c-2.934,0-5.016-.344-6.267-1.014a3.132,3.132,0,0,1-1.865-2.86,3.2,3.2,0,0,1,1.218-2.582,7.711,7.711,0,0,1,3.808-1.407v-.521c-2.557.016-3.841-.589-3.841-1.848a1.893,1.893,0,0,1,.94-1.568,9.2,9.2,0,0,1,3.114-1.161v-.556a4.428,4.428,0,0,1-3.285-1.388,4.69,4.69,0,0,1-1.121-3.22,5.032,5.032,0,0,1,2.118-4.25,9.438,9.438,0,0,1,5.81-1.584h8.7V15.3l-5.73-.818V15q4.22.859,4.225,4.087a4.265,4.265,0,0,1-1.935,3.628,9.615,9.615,0,0,1-5.573,1.371c-.352,0-.7-.016-1.071-.033a9.637,9.637,0,0,1-1.309-.18q-2.228,1.079-2.23,1.862a.6.6,0,0,0,.466.556,5.015,5.015,0,0,0,1.153.245,12.475,12.475,0,0,0,1.347.066h4.577c.414,0,.979.032,1.69.1a8.708,8.708,0,0,1,2.148.54,4.326,4.326,0,0,1,1.815,1.388,4.079,4.079,0,0,1,.734,2.584,4.233,4.233,0,0,1-2.456,4.035,16.042,16.042,0,0,1-7.184,1.276" transform="translate(-184.046 -6.486)" fill="#b55a45"/>
      <path id="Path_98" data-name="Path 98" d="M408.322,28.1a5.232,5.232,0,0,0,2.549-.654,5.052,5.052,0,0,0,2.009-2.124,8.259,8.259,0,0,0,.785-3.89,8.566,8.566,0,0,0-.8-4,5.225,5.225,0,0,0-2.091-2.257,5.556,5.556,0,0,0-2.691-.717,5.366,5.366,0,0,0-2.574.651,5.156,5.156,0,0,0-2.026,2.143,8.223,8.223,0,0,0-.785,3.871,8.892,8.892,0,0,0,.785,4.021,5.143,5.143,0,0,0,2.083,2.254,5.606,5.606,0,0,0,2.754.7m-.1,2.631a9.149,9.149,0,0,1-4.525-1.109,7.562,7.562,0,0,1-3.091-3.22,11.154,11.154,0,0,1-1.118-5.215,10.715,10.715,0,0,1,1.153-5.229,7.611,7.611,0,0,1,3.111-3.154,9.3,9.3,0,0,1,4.4-1.047,8.954,8.954,0,0,1,4.452,1.1,7.585,7.585,0,0,1,3.108,3.2,11.133,11.133,0,0,1,1.137,5.278,10.736,10.736,0,0,1-1.137,5.215,7.528,7.528,0,0,1-3.089,3.135,9.284,9.284,0,0,1-4.4,1.047" transform="translate(-206.196 -6.067)" fill="#b55a45"/>
      <path id="Path_99" data-name="Path 99" d="M452.085,14.485a4.66,4.66,0,0,0-3.408,1.322,6.445,6.445,0,0,0-1.723,3.678l9.782-.147a5.528,5.528,0,0,0-1.415-3.612,4.361,4.361,0,0,0-3.236-1.241m.319,16.243c-2.868,0-5.044-.851-6.521-2.532a9.769,9.769,0,0,1-2.214-6.685,12.209,12.209,0,0,1,.962-4.967,7.68,7.68,0,0,1,7.454-4.79,7.22,7.22,0,0,1,5.785,2.486q2.106,2.474,1.865,7.271l-12.963.131a7.464,7.464,0,0,0,1.505,4.8,5.178,5.178,0,0,0,4.16,1.652,5.237,5.237,0,0,0,2.6-.556,3.783,3.783,0,0,0,1.5-1.42,5.11,5.11,0,0,0,.646-1.816l2.9.475A6.921,6.921,0,0,1,457.69,29.1a7.927,7.927,0,0,1-5.286,1.633" transform="translate(-228.999 -6.067)" fill="#b55a45"/>
      <path id="Path_100" data-name="Path 100" d="M493.2,21.9a4.2,4.2,0,0,0,2.32-.638,5.306,5.306,0,0,0,1.66-1.617,8.08,8.08,0,0,0,1.014-2.11,7.077,7.077,0,0,0,.352-2.091v-.36a7.411,7.411,0,0,0-.305-1.944,8.068,8.068,0,0,0-.922-2.172,5.634,5.634,0,0,0-1.628-1.751,4.166,4.166,0,0,0-2.426-.7,3.961,3.961,0,0,0-3.506,1.9,8.686,8.686,0,0,0-1.243,4.853,8.435,8.435,0,0,0,1.243,4.823A3.937,3.937,0,0,0,493.2,21.9m-.7,2.762a6.422,6.422,0,0,1-5.27-2.517,11.04,11.04,0,0,1-1.993-7,13.16,13.16,0,0,1,.856-4.967,7.462,7.462,0,0,1,2.462-3.3,6.337,6.337,0,0,1,3.847-1.194,5.548,5.548,0,0,1,3.138.834,6.026,6.026,0,0,1,2.028,2.205,11.176,11.176,0,0,1,1.121,3.22h.521c-.188-1.24-.344-2.418-.474-3.56a28.6,28.6,0,0,1-.185-3.007V0h3.208l-.032,15.64.032,8.563h-2.9l.245-5.343H498.6a8.933,8.933,0,0,1-2.091,4.267,5.352,5.352,0,0,1-4.021,1.535" transform="translate(-250.451 -0.001)" fill="#b55a45"/>
      <path id="Path_101" data-name="Path 101" d="M549.176,30.8l-6.5-18.025h3.5l4.962,15.3h.382l4.991-15.3h3.424L553.408,30.8Z" transform="translate(-280.103 -6.591)" fill="#b55a45"/>
      <path id="Path_102" data-name="Path 102" d="M592.349,28.1a5.233,5.233,0,0,0,2.549-.654,5.052,5.052,0,0,0,2.009-2.124,8.258,8.258,0,0,0,.785-3.89,8.566,8.566,0,0,0-.8-4A5.225,5.225,0,0,0,594.8,15.17a5.556,5.556,0,0,0-2.691-.717,5.366,5.366,0,0,0-2.574.651,5.152,5.152,0,0,0-2.025,2.143,8.217,8.217,0,0,0-.785,3.871,8.886,8.886,0,0,0,.785,4.021,5.139,5.139,0,0,0,2.082,2.254,5.606,5.606,0,0,0,2.754.7m-.1,2.631a9.149,9.149,0,0,1-4.525-1.109,7.563,7.563,0,0,1-3.091-3.22,11.155,11.155,0,0,1-1.118-5.215,10.715,10.715,0,0,1,1.153-5.229A7.611,7.611,0,0,1,587.78,12.8a9.3,9.3,0,0,1,4.4-1.047,8.954,8.954,0,0,1,4.452,1.1,7.569,7.569,0,0,1,3.108,3.2,11.133,11.133,0,0,1,1.137,5.278,10.736,10.736,0,0,1-1.137,5.215,7.529,7.529,0,0,1-3.089,3.135,9.284,9.284,0,0,1-4.4,1.047" transform="translate(-301.181 -6.067)" fill="#b55a45"/>
      <path id="Path_103" data-name="Path 103" d="M636.529,28.1a5.245,5.245,0,0,0,2.549-.654,5.062,5.062,0,0,0,2.009-2.124,8.252,8.252,0,0,0,.785-3.89,8.533,8.533,0,0,0-.8-4,5.211,5.211,0,0,0-2.091-2.257,5.545,5.545,0,0,0-2.688-.717,5.366,5.366,0,0,0-2.574.651,5.137,5.137,0,0,0-2.025,2.143,8.181,8.181,0,0,0-.785,3.871,8.846,8.846,0,0,0,.785,4.021,5.126,5.126,0,0,0,2.082,2.254,5.6,5.6,0,0,0,2.754.7m-.1,2.631a9.161,9.161,0,0,1-4.528-1.109,7.557,7.557,0,0,1-3.088-3.22,11.153,11.153,0,0,1-1.118-5.215,10.717,10.717,0,0,1,1.15-5.229A7.635,7.635,0,0,1,631.96,12.8a9.289,9.289,0,0,1,4.4-1.047,8.96,8.96,0,0,1,4.452,1.1,7.579,7.579,0,0,1,3.1,3.2,11.1,11.1,0,0,1,1.137,5.278,10.7,10.7,0,0,1-1.137,5.215,7.521,7.521,0,0,1-3.086,3.135,9.292,9.292,0,0,1-4.4,1.047" transform="translate(-323.984 -6.067)" fill="#b55a45"/>
      <path id="Path_104" data-name="Path 104" d="M673.566,30.307V20.942l-.041-8.694h2.9l-.351,7.028h.491a12.37,12.37,0,0,1,1.731-5.542,4.156,4.156,0,0,1,3.615-1.911,6.216,6.216,0,0,1,.9.082,4.787,4.787,0,0,1,1.055.278l-.18,3.35a5.741,5.741,0,0,0-2.058-.425,3.68,3.68,0,0,0-3.3,2.058,13.889,13.889,0,0,0-1.586,5.393v7.748Z" transform="translate(-347.639 -6.102)" fill="#b55a45"/>
      <path id="Path_105" data-name="Path 105" d="M123.451,113.275l-6.5-18.025h3.5l4.959,15.3h.385l4.994-15.3h3.424l-6.532,18.025Z" transform="translate(-60.366 -49.163)" fill="#b55a45"/>
      <path id="Path_106" data-name="Path 106" d="M166.1,96.964a4.653,4.653,0,0,0-3.405,1.325,6.45,6.45,0,0,0-1.725,3.678l9.782-.147a5.5,5.5,0,0,0-1.415-3.612,4.358,4.358,0,0,0-3.236-1.243m.319,16.245c-2.868,0-5.044-.851-6.518-2.532a9.777,9.777,0,0,1-2.216-6.685,12.21,12.21,0,0,1,.965-4.967,7.68,7.68,0,0,1,7.451-4.79,7.222,7.222,0,0,1,5.785,2.484c1.407,1.652,2.028,4.07,1.865,7.273l-12.96.131a7.447,7.447,0,0,0,1.5,4.8,6.161,6.161,0,0,0,6.758,1.1,3.794,3.794,0,0,0,1.5-1.42,5.206,5.206,0,0,0,.646-1.816l2.9.475a6.916,6.916,0,0,1-2.4,4.313,7.907,7.907,0,0,1-5.286,1.636" transform="translate(-81.391 -48.639)" fill="#b55a45"/>
      <path id="Path_107" data-name="Path 107" d="M200.946,112.787v-9.364l-.041-8.694h2.9l-.351,7.028h.491a12.362,12.362,0,0,1,1.731-5.54,4.143,4.143,0,0,1,3.612-1.914,6.25,6.25,0,0,1,.908.082,4.726,4.726,0,0,1,1.052.278l-.177,3.35a5.741,5.741,0,0,0-2.061-.425,3.676,3.676,0,0,0-3.3,2.058,13.85,13.85,0,0,0-1.587,5.4v7.745Z" transform="translate(-103.697 -48.674)" fill="#b55a45"/>
      <path id="Path_108" data-name="Path 108" d="M238.856,104.381a3.973,3.973,0,0,0,3.438-1.8,8.375,8.375,0,0,0,1.235-4.837,8.632,8.632,0,0,0-1.235-4.869A3.969,3.969,0,0,0,238.812,91a4.2,4.2,0,0,0-2.41.687,5.792,5.792,0,0,0-1.657,1.747,8.285,8.285,0,0,0-.941,2.192,7.67,7.67,0,0,0-.295,1.944v.393a7.137,7.137,0,0,0,.344,2.091,8,8,0,0,0,1.014,2.094,5.455,5.455,0,0,0,1.658,1.6,4.239,4.239,0,0,0,2.331.638m.725,2.762a5.4,5.4,0,0,1-4.084-1.587,8.842,8.842,0,0,1-2.094-4.215h-.458l.245,5.343h-2.9l.038-8.661-.038-15.542h3.217v5.31a26.993,26.993,0,0,1-.2,3.089c-.131,1.129-.286,2.307-.475,3.514h.532a11.6,11.6,0,0,1,1.1-3.138,6.027,6.027,0,0,1,2.042-2.238,5.574,5.574,0,0,1,3.146-.851,6.273,6.273,0,0,1,3.808,1.178,7.474,7.474,0,0,1,2.475,3.3,13.221,13.221,0,0,1,.875,5.033,11.1,11.1,0,0,1-1.952,6.946,6.376,6.376,0,0,1-5.281,2.517" transform="translate(-118.865 -42.573)" fill="#b55a45"/>
      <rect id="Rectangle_27" data-name="Rectangle 27" width="3.138" height="24.203" transform="translate(132.835 39.91)" fill="#b55a45"/>
      <path id="Path_109" data-name="Path 109" d="M292.193,88.4h3.179v18.058h-3.179Zm1.6-2.827c-1.437,0-2.165-.589-2.165-1.75,0-1.191.728-1.78,2.165-1.78s2.165.589,2.165,1.78c0,1.161-.72,1.75-2.165,1.75" transform="translate(-150.523 -42.346)" fill="#b55a45"/>
      <path id="Path_110" data-name="Path 110" d="M308.422,85.573c-1.448,0-2.167-.589-2.167-1.75,0-1.192.72-1.781,2.167-1.781s2.165.589,2.165,1.781c0,1.161-.72,1.75-2.165,1.75m-3.383,26.817a8,8,0,0,1-2.208-.344l-.242-2.892a5.235,5.235,0,0,0,3.252.016c.679-.344,1.012-1.224,1.012-2.647V88.4h3.179v17.78q0,6.2-4.992,6.21" transform="translate(-156.18 -42.346)" fill="#b55a45"/>
      <path id="Path_111" data-name="Path 111" d="M329.5,106.424V93.856H326.4V91.307l4.578.311v-.524a3.891,3.891,0,0,1-2.41-1.568,4.95,4.95,0,0,1,.676-6.145,5.47,5.47,0,0,1,3.964-1.407,6.825,6.825,0,0,1,2.426.409,5.337,5.337,0,0,1,1.87,1.1l-.382,3.04a5.237,5.237,0,0,0-3.6-1.538,2.565,2.565,0,0,0-1.974.752,2.966,2.966,0,0,0-.72,2.14,3.4,3.4,0,0,0,.7,2.222,3.1,3.1,0,0,0,1.644,1.1h4.01l-.033,2.664h-4.5v12.568Z" transform="translate(-168.469 -42.311)" fill="#b55a45"/>
      <path id="Path_112" data-name="Path 112" d="M374.889,96.1a5.892,5.892,0,0,0,1.461,3.907c.965,1.142,2.527,1.715,4.667,1.715a7.786,7.786,0,0,0,3.71-.851,10.145,10.145,0,0,0,2.778-2.222,29.433,29.433,0,0,1-3.138-4.771,40.763,40.763,0,0,1-2.377-5.281,12.746,12.746,0,0,0-5.261,3.105,6.23,6.23,0,0,0-1.84,4.4m5.777,8.367a9.071,9.071,0,0,1-4.553-1.1,7.831,7.831,0,0,1-3-2.958,8.246,8.246,0,0,1-1.08-4.215,8.742,8.742,0,0,1,2.222-5.818,14.685,14.685,0,0,1,6.922-4.087,27.423,27.423,0,0,1-1.431-7.859,11.455,11.455,0,0,1,.818-4.316,7.417,7.417,0,0,1,2.585-3.3,7.505,7.505,0,0,1,4.517-1.273,8.081,8.081,0,0,1,4.157.995,6.7,6.7,0,0,1,2.609,2.683,7.75,7.75,0,0,1,.889,3.675,8.159,8.159,0,0,1-2.189,5.444q-2.2,2.523-7.511,4.149l-.36-1.42a17.859,17.859,0,0,0,5.6-3.809,6.1,6.1,0,0,0,1.6-4.054,4.905,4.905,0,0,0-1.349-3.612,4.744,4.744,0,0,0-3.5-1.339,4.444,4.444,0,0,0-2.884.884,4.953,4.953,0,0,0-1.584,2.32,9.363,9.363,0,0,0-.491,3.072,22.1,22.1,0,0,0,.742,5.18,38.806,38.806,0,0,0,2.118,6.161,36.045,36.045,0,0,0,3.217,5.867,19.12,19.12,0,0,0,4.038,4.4,7.415,7.415,0,0,0,4.594,1.682,4.312,4.312,0,0,0,3.037-1.047,3.53,3.53,0,0,0,1.154-2.729,5.967,5.967,0,0,0-2.557-4.574,15.924,15.924,0,0,0-7.353-2.991V87.066h11.747v2.958L394.245,88.8v.818a15.7,15.7,0,0,1,7.486,3.318,7.161,7.161,0,0,1,2.631,5.474,5.778,5.778,0,0,1-.946,3.318,5.985,5.985,0,0,1-2.527,2.091,8.282,8.282,0,0,1-3.424.7,9.572,9.572,0,0,1-4.853-1.325,17.312,17.312,0,0,1-4.239-3.511,10.1,10.1,0,0,1-2.83,3.383,7.7,7.7,0,0,1-4.877,1.4" transform="translate(-192.022 -35.897)" fill="#b55a45"/>
      <path id="Path_113" data-name="Path 113" d="M466,112.787v-9.364l-.041-8.694h2.9l-.351,7.028H469a12.325,12.325,0,0,1,1.731-5.54,4.143,4.143,0,0,1,3.612-1.914,6.249,6.249,0,0,1,.908.082,4.8,4.8,0,0,1,1.052.278l-.18,3.35a5.714,5.714,0,0,0-2.058-.425,3.683,3.683,0,0,0-3.3,2.058,13.892,13.892,0,0,0-1.584,5.4v7.745Z" transform="translate(-240.505 -48.674)" fill="#b55a45"/>
      <path id="Path_114" data-name="Path 114" d="M501.668,96.964a4.662,4.662,0,0,0-3.408,1.325,6.445,6.445,0,0,0-1.723,3.678l9.779-.147a5.5,5.5,0,0,0-1.412-3.612,4.362,4.362,0,0,0-3.236-1.243m.319,16.245c-2.868,0-5.044-.851-6.521-2.532a9.773,9.773,0,0,1-2.214-6.685,12.21,12.21,0,0,1,.962-4.967,7.68,7.68,0,0,1,7.454-4.79,7.23,7.23,0,0,1,5.785,2.484c1.4,1.652,2.025,4.07,1.862,7.273l-12.96.131a7.447,7.447,0,0,0,1.505,4.8,5.178,5.178,0,0,0,4.16,1.652,5.237,5.237,0,0,0,2.6-.556,3.787,3.787,0,0,0,1.5-1.42,5.157,5.157,0,0,0,.646-1.816l2.9.475a6.912,6.912,0,0,1-2.394,4.313,7.913,7.913,0,0,1-5.286,1.636" transform="translate(-254.591 -48.639)" fill="#b55a45"/>
      <path id="Path_115" data-name="Path 115" d="M543.489,113.209a8.8,8.8,0,0,1-4.959-1.276,7.438,7.438,0,0,1-2.811-3.4,11.933,11.933,0,0,1-.891-4.656,12.114,12.114,0,0,1,.948-4.869,7.955,7.955,0,0,1,2.827-3.481,8.228,8.228,0,0,1,4.714-1.292,7.473,7.473,0,0,1,5.207,1.75,6.536,6.536,0,0,1,2.164,4.395l-2.968.671a4.525,4.525,0,0,0-1.241-2.876,4.2,4.2,0,0,0-3.2-1.21,4.729,4.729,0,0,0-3.775,1.75,7.652,7.652,0,0,0-1.461,5.065,7.726,7.726,0,0,0,1.445,5.049,5,5,0,0,0,4.037,1.717,4.408,4.408,0,0,0,3.416-1.243,5.1,5.1,0,0,0,1.331-3.154l2.933.524a7.008,7.008,0,0,1-2.317,4.806,7.969,7.969,0,0,1-5.4,1.731" transform="translate(-276.051 -48.639)" fill="#b55a45"/>
      <path id="Path_116" data-name="Path 116" d="M577.358,112.787v-9.364l-.041-8.694h2.9l-.351,7.028h.491a12.363,12.363,0,0,1,1.731-5.54A4.143,4.143,0,0,1,585.7,94.3a6.248,6.248,0,0,1,.908.082,4.725,4.725,0,0,1,1.052.278l-.177,3.35a5.742,5.742,0,0,0-2.061-.425,3.676,3.676,0,0,0-3.3,2.058,13.892,13.892,0,0,0-1.587,5.4v7.745Z" transform="translate(-297.981 -48.674)" fill="#b55a45"/>
      <path id="Path_117" data-name="Path 117" d="M613.042,96.964a4.662,4.662,0,0,0-3.408,1.325,6.482,6.482,0,0,0-1.723,3.678l9.782-.147a5.512,5.512,0,0,0-1.415-3.612,4.362,4.362,0,0,0-3.236-1.243m.319,16.245c-2.868,0-5.044-.851-6.521-2.532a9.773,9.773,0,0,1-2.214-6.685,12.209,12.209,0,0,1,.962-4.967,7.68,7.68,0,0,1,7.454-4.79,7.226,7.226,0,0,1,5.785,2.484c1.407,1.652,2.026,4.07,1.865,7.273l-12.96.131a7.447,7.447,0,0,0,1.5,4.8,6.161,6.161,0,0,0,6.758,1.1,3.771,3.771,0,0,0,1.5-1.42,5.107,5.107,0,0,0,.646-1.816l2.9.475a6.918,6.918,0,0,1-2.4,4.313,7.913,7.913,0,0,1-5.286,1.636" transform="translate(-312.077 -48.639)" fill="#b55a45"/>
      <path id="Path_118" data-name="Path 118" d="M652.472,110.627a5.579,5.579,0,0,0,3.441-1.325,7.415,7.415,0,0,0,2.459-4.018v-1.9a7.879,7.879,0,0,1-1.993.589c-.769.115-1.554.246-2.352.376a14.211,14.211,0,0,0-2.241.54,4.05,4.05,0,0,0-1.674,1.044,2.74,2.74,0,0,0-.646,1.93,2.57,2.57,0,0,0,.818,2.025,3.15,3.15,0,0,0,2.189.736m-.916,2.582a5.784,5.784,0,0,1-3.732-1.227,4.538,4.538,0,0,1-1.538-3.773,4.935,4.935,0,0,1,.719-2.811,5.048,5.048,0,0,1,1.9-1.669,10.76,10.76,0,0,1,2.6-.932c.94-.21,1.905-.389,2.887-.521a24.216,24.216,0,0,0,2.426-.425A2.423,2.423,0,0,0,658,101.3a1.475,1.475,0,0,0,.335-1.047,3.1,3.1,0,0,0-.981-2.385,3.9,3.9,0,0,0-2.794-.932,6.218,6.218,0,0,0-2.091.36,4.009,4.009,0,0,0-1.78,1.227,4.433,4.433,0,0,0-.949,2.288l-2.9-.769a6.123,6.123,0,0,1,2.59-4.345,8.831,8.831,0,0,1,5.1-1.456,7.613,7.613,0,0,1,4.166.981,5.449,5.449,0,0,1,2.165,2.615,9.863,9.863,0,0,1,.654,3.645V105.2c0,1.194.016,2.454.065,3.792s.115,2.6.213,3.759h-2.974c-.016-.867-.041-1.7-.049-2.532-.008-.818-.008-1.685.016-2.565h-.417a8.968,8.968,0,0,1-1.331,2.778,6.785,6.785,0,0,1-2.29,2.025,6.649,6.649,0,0,1-3.195.752" transform="translate(-333.58 -48.639)" fill="#b55a45"/>
      <path id="Path_119" data-name="Path 119" d="M692.572,109.328a4.672,4.672,0,0,1-3.743-1.421,6.11,6.11,0,0,1-1.219-4.054V93.59h-2.546l.03-2.549h1.4a2.3,2.3,0,0,0,1.448-.442,2.083,2.083,0,0,0,.548-1.306l.275-2.355h1.955v3.988h5.033v2.729h-5.033V103.74a2.593,2.593,0,0,0,.7,2.091,2.729,2.729,0,0,0,1.781.572,4.86,4.86,0,0,0,1.292-.2,4.322,4.322,0,0,0,1.322-.638v3.138a9.977,9.977,0,0,1-1.709.491,10.3,10.3,0,0,1-1.535.131" transform="translate(-353.595 -44.873)" fill="#b55a45"/>
      <path id="Path_120" data-name="Path 120" d="M715.435,88.4h3.179v18.058h-3.179Zm1.6-2.827c-1.437,0-2.165-.589-2.165-1.75,0-1.191.728-1.78,2.165-1.78s2.165.589,2.165,1.78c0,1.161-.72,1.75-2.165,1.75" transform="translate(-368.979 -42.346)" fill="#b55a45"/>
      <path id="Path_121" data-name="Path 121" d="M740.679,96.964a4.662,4.662,0,0,0-3.408,1.325,6.482,6.482,0,0,0-1.723,3.678l9.782-.147a5.5,5.5,0,0,0-1.415-3.612,4.362,4.362,0,0,0-3.236-1.243M741,113.209c-2.868,0-5.044-.851-6.518-2.532a9.776,9.776,0,0,1-2.216-6.685,12.258,12.258,0,0,1,.962-4.967,7.688,7.688,0,0,1,7.454-4.79,7.232,7.232,0,0,1,5.788,2.484c1.4,1.652,2.025,4.07,1.862,7.273l-12.96.131a7.447,7.447,0,0,0,1.5,4.8,6.161,6.161,0,0,0,6.758,1.1,3.794,3.794,0,0,0,1.5-1.42,5.1,5.1,0,0,0,.644-1.816l2.9.475a6.9,6.9,0,0,1-2.4,4.313A7.907,7.907,0,0,1,741,113.209" transform="translate(-377.956 -48.639)" fill="#b55a45"/>
      <path id="Path_122" data-name="Path 122" d="M0,192.752V205.81H11.11V262.3H25.964V205.81h11.11V192.752Z" transform="translate(0 -99.488)" fill="#b55a45"/>
      <path id="Path_123" data-name="Path 123" d="M103.053,205.8V220.25h15.515v13.064H103.053v15.914h19.771V262.3H88.2V192.739h34.625V205.8Z" transform="translate(-45.524 -99.482)" fill="#b55a45"/>
      <path id="Path_124" data-name="Path 124" d="M205.679,214.7c0-5.768-4.333-8.5-9.21-8.5h-5.422v16.642h5.2c6.623,0,9.43-3.937,9.43-8.144m19.787,47.666H207.774l-16.726-29.7v29.7H176.2V192.807l22.44.046c13.558,0,21.894,8.111,21.894,20.778a18.659,18.659,0,0,1-13.958,18.135Z" transform="translate(-90.943 -99.517)" fill="#b55a45"/>
      <path id="Path_125" data-name="Path 125" d="M324.783,249.235V262.3H290V192.738h14.854v56.5Z" transform="translate(-149.684 -99.481)" fill="#b55a45"/>
      <rect id="Rectangle_28" data-name="Rectangle 28" width="14.938" height="69.561" transform="translate(180.298 93.259)" fill="#b55a45"/>
      <path id="Path_126" data-name="Path 126" d="M471.465,192.659V262.25H458.385L439.116,221V262.25H424.262V192.659h13.077l19.275,41.894V192.659Z" transform="translate(-218.982 -99.441)" fill="#b55a45"/>
      <path id="Path_127" data-name="Path 127" d="M605.593,223.316v13.092c-4.139,14.957-17.121,25.861-33.678,25.861-20.547,0-35.081-16.232-35.081-36.246s14.178-36.252,34.728-36.252c16.841,0,30.412,11.31,33.355,25.864H588.928c-2.991-7.537-9.21-11.363-17.366-11.363-11.7,0-19.482,9-19.482,21.751s8.141,21.741,19.835,21.741a18.819,18.819,0,0,0,17.723-11.356H568.376V223.316Z" transform="translate(-277.086 -97.951)" fill="#b55a45"/>
      <path id="Path_128" data-name="Path 128" d="M709.5,205.8V220.25h15.515v13.064H709.5v15.914h19.771V262.3H694.646V192.739h34.625V205.8Z" transform="translate(-358.54 -99.482)" fill="#b55a45"/>
      <path id="Path_129" data-name="Path 129" d="M812.124,214.7c0-5.768-4.333-8.5-9.21-8.5H797.49v16.642h5.2c6.625,0,9.432-3.937,9.432-8.144m19.787,47.666H814.219l-16.729-29.7v29.7H782.639V192.807l22.443.046c13.558,0,21.894,8.111,21.894,20.778a18.659,18.659,0,0,1-13.958,18.135Z" transform="translate(-403.958 -99.517)" fill="#b55a45"/>
      <path id="Path_130" data-name="Path 130" d="M211.228,399.284v27.511h-14.6V399.284H181.77v69.553h14.854V439.861h14.6v28.976h14.854V399.284Z" transform="translate(-93.82 -206.09)" fill="#b55a45"/>
      <path id="Path_131" data-name="Path 131" d="M343.261,432.326c0-12.751-8.136-21.751-19.828-21.751s-19.831,9-19.831,21.751,8.137,21.746,19.831,21.746,19.828-8.992,19.828-21.746m15.253,0c0,20.02-14.885,36.252-35.081,36.252-20.547,0-35.082-16.232-35.082-36.252s14.534-36.247,35.082-36.247,35.081,16.227,35.081,36.247" transform="translate(-148.832 -204.436)" fill="#b55a45"/>
      <path id="Path_132" data-name="Path 132" d="M448.231,399.289v69.558h34.625V455.778H463.085V439.866H478.6V426.8H463.085V412.353h19.771V399.289Z" transform="translate(-231.354 -206.092)" fill="#b55a45"/>
      <path id="Path_133" data-name="Path 133" d="M558.108,399.251l-7.425,46.173-7.424-46.173H527.344L542.9,468.812h15.576l15.553-69.561Z" transform="translate(-272.188 -206.073)" fill="#b55a45"/>
      <path id="Path_134" data-name="Path 134" d="M635.784,399.289v69.558h34.623V455.778H650.636V439.866h15.515V426.8H650.636V412.353h19.772V399.289Z" transform="translate(-328.159 -206.092)" fill="#b55a45"/>
      <path id="Path_135" data-name="Path 135" d="M211.228,399.284v27.511h-14.6V399.284H181.77v69.553h14.854V439.861h14.6v28.976h14.854V399.284Z" transform="translate(-93.82 -206.09)" fill="#b55a45"/>
      <path id="Path_136" data-name="Path 136" d="M343.261,432.326c0-12.751-8.136-21.751-19.828-21.751s-19.831,9-19.831,21.751,8.137,21.746,19.831,21.746,19.828-8.992,19.828-21.746m15.253,0c0,20.02-14.885,36.252-35.081,36.252-20.547,0-35.082-16.232-35.082-36.252s14.534-36.247,35.082-36.247,35.081,16.227,35.081,36.247" transform="translate(-148.832 -204.436)" fill="#b55a45"/>
      <path id="Path_137" data-name="Path 137" d="M448.231,399.289v69.558h34.625V455.778H463.085V439.866H478.6V426.8H463.085V412.353h19.771V399.289Z" transform="translate(-231.354 -206.092)" fill="#b55a45"/>
      <path id="Path_138" data-name="Path 138" d="M558.108,399.251l-7.425,46.173-7.424-46.173H527.344L542.9,468.812h15.576l15.553-69.561Z" transform="translate(-272.188 -206.073)" fill="#b55a45"/>
      <path id="Path_139" data-name="Path 139" d="M635.784,399.289v69.558h34.623V455.778H650.636V439.866h15.515V426.8H650.636V412.353h19.772V399.289Z" transform="translate(-328.159 -206.092)" fill="#b55a45"/>
    </g>
  </g>
</svg>
