<svg xmlns="http://www.w3.org/2000/svg" width="106.527" height="85.765" viewBox="0 0 106.527 85.765">
  <g id="Group_156" data-name="Group 156" transform="translate(-798.198 -3713.378)">
    <ellipse id="Ellipse_26" data-name="Ellipse 26" cx="11.318" cy="11.318" rx="11.318" ry="11.318" transform="translate(803.875 3714.628)" fill="none" stroke="#b55a45" stroke-linecap="round" stroke-linejoin="round" stroke-width="2.5"/>
    <path id="Path_182" data-name="Path 182" d="M1,57.851v-15.5A15.625,15.625,0,0,1,32.249,42.1V57.851" transform="translate(798.449 3714.974)" fill="none" stroke="#b55a45" stroke-linecap="round" stroke-linejoin="round" stroke-width="2.5"/>
    <line id="Line_33" data-name="Line 33" y1="25.068" transform="translate(810.305 3772.824)" fill="none" stroke="#b55a45" stroke-linecap="round" stroke-linejoin="round" stroke-width="2.5"/>
    <line id="Line_34" data-name="Line 34" y1="25.068" transform="translate(820.083 3772.824)" fill="none" stroke="#b55a45" stroke-linecap="round" stroke-linejoin="round" stroke-width="2.5"/>
    <ellipse id="Ellipse_27" data-name="Ellipse 27" cx="11.318" cy="11.318" rx="11.318" ry="11.318" transform="translate(844.271 3714.628)" fill="none" stroke="#b55a45" stroke-linecap="round" stroke-linejoin="round" stroke-width="2.5"/>
    <path id="Path_183" data-name="Path 183" d="M39.379,57.837v-15.5a15.624,15.624,0,0,1,31.248,0v15.5" transform="translate(800.467 3714.986)" fill="none" stroke="#b55a45" stroke-linecap="round" stroke-linejoin="round" stroke-width="2.5"/>
    <line id="Line_35" data-name="Line 35" y1="25.068" transform="translate(850.7 3772.824)" fill="none" stroke="#b55a45" stroke-linecap="round" stroke-linejoin="round" stroke-width="2.5"/>
    <line id="Line_36" data-name="Line 36" y1="25.068" transform="translate(860.479 3772.824)" fill="none" stroke="#b55a45" stroke-linecap="round" stroke-linejoin="round" stroke-width="2.5"/>
    <line id="Line_37" data-name="Line 37" y2="22.197" transform="translate(892.376 3746.165)" fill="none" stroke="#b55a45" stroke-linecap="round" stroke-linejoin="round" stroke-width="2.5"/>
    <line id="Line_38" data-name="Line 38" x1="22.197" transform="translate(881.278 3757.262)" fill="none" stroke="#b55a45" stroke-linecap="round" stroke-linejoin="round" stroke-width="2.5"/>
  </g>
</svg>
