<svg xmlns="http://www.w3.org/2000/svg" width="211.845" height="39.538" viewBox="0 0 211.845 39.538">
  <g id="Group_116" data-name="Group 116" transform="translate(-720 -27.568)">
    <g id="Group_17" data-name="Group 17" transform="translate(720 27.568)">
      <path id="Path_50" data-name="Path 50" d="M0,118.761v4.017H3.418v17.38h4.57v-17.38h3.418v-4.017Z" transform="translate(0 -101.083)" fill="#b55a45"/>
      <path id="Path_51" data-name="Path 51" d="M92.769,122.768v4.445h4.773v4.019H92.769v4.9h6.083v4.021H88.2v-21.4H98.851v4.019Z" transform="translate(-75.07 -101.073)" fill="#b55a45"/>
      <g id="Group_16" data-name="Group 16" transform="translate(21.419)">
        <g id="Group_18" data-name="Group 18">
          <path id="Path_52" data-name="Path 52" d="M185.266,125.553a2.569,2.569,0,0,0-2.833-2.614h-1.668v5.12h1.6c2.038,0,2.9-1.211,2.9-2.506m6.087,14.664h-5.443l-5.146-9.137v9.137H176.2v-21.4l6.9.014c4.171,0,6.736,2.5,6.736,6.392a5.74,5.74,0,0,1-4.294,5.579Z" transform="translate(-171.387 -101.13)" fill="#b55a45"/>
          <path id="Path_53" data-name="Path 53" d="M300.7,136.128v4.019H290v-21.4h4.57v17.381Z" transform="translate(-268.253 -101.071)" fill="#b55a45"/>
          <rect id="Rectangle_10" data-name="Rectangle 10" width="4.596" height="21.4" transform="translate(34.049 17.677)" fill="#b55a45"/>
          <path id="Path_54" data-name="Path 54" d="M438.784,118.669v21.41H434.76l-5.928-12.691v12.691h-4.57v-21.41h4.023l5.93,12.888V118.669Z" transform="translate(-382.528 -101.004)" fill="#b55a45"/>
          <path id="Path_55" data-name="Path 55" d="M557.988,126.1v4.028a10.637,10.637,0,0,1-10.361,7.956c-6.321,0-10.793-4.994-10.793-11.151s4.362-11.153,10.684-11.153a10.272,10.272,0,0,1,10.262,7.957h-4.919a5.362,5.362,0,0,0-5.343-3.5c-3.6,0-5.994,2.768-5.994,6.692s2.5,6.688,6.1,6.688a5.789,5.789,0,0,0,5.452-3.494h-6.541V126.1Z" transform="translate(-478.343 -98.547)" fill="#b55a45"/>
          <path id="Path_56" data-name="Path 56" d="M699.215,122.768v4.445h4.773v4.019h-4.773v4.9H705.3v4.021H694.646v-21.4H705.3v4.019Z" transform="translate(-612.663 -101.073)" fill="#b55a45"/>
          <path id="Path_57" data-name="Path 57" d="M791.71,125.553a2.569,2.569,0,0,0-2.833-2.614h-1.669v5.12h1.6c2.038,0,2.9-1.211,2.9-2.506m6.087,14.664h-5.443l-5.146-9.137v9.137h-4.569v-21.4l6.9.014c4.171,0,6.736,2.5,6.736,6.392a5.74,5.74,0,0,1-4.294,5.579Z" transform="translate(-687.558 -101.13)" fill="#b55a45"/>
          <path id="Path_58" data-name="Path 58" d="M906.65,118.981v8.464h-4.493v-8.464h-4.57v21.4h4.57v-8.914h4.493v8.914h4.57v-21.4Z" transform="translate(-785.396 -101.27)" fill="#b55a45"/>
          <path id="Path_59" data-name="Path 59" d="M1021.061,126.927c0-3.923-2.5-6.692-6.1-6.692s-6.1,2.769-6.1,6.692,2.5,6.69,6.1,6.69,6.1-2.766,6.1-6.69m4.693,0a10.818,10.818,0,0,1-10.793,11.153c-6.321,0-10.793-4.994-10.793-11.153s4.471-11.151,10.793-11.151,10.793,4.992,10.793,11.151" transform="translate(-876.112 -98.542)" fill="#b55a45"/>
          <path id="Path_60" data-name="Path 60" d="M1164.048,118.986v21.4H1174.7v-4.021h-6.082v-4.9h4.773v-4.02h-4.773V123h6.082v-4.019Z" transform="translate(-1012.192 -101.274)" fill="#b55a45"/>
          <path id="Path_61" data-name="Path 61" d="M1252.626,118.948l-2.284,14.205-2.284-14.205h-4.9l4.785,21.4h4.792l4.785-21.4Z" transform="translate(-1079.53 -101.242)" fill="#b55a45"/>
          <path id="Path_62" data-name="Path 62" d="M1351.6,118.986v21.4h10.652v-4.021h-6.083v-4.9h4.773v-4.02h-4.773V123h6.083v-4.019Z" transform="translate(-1171.828 -101.274)" fill="#b55a45"/>
          <path id="Path_63" data-name="Path 63" d="M143.893,22.46V15.371h.99V21.59h3.255v.87Z" transform="translate(-143.893 -13.083)" fill="#b55a45"/>
          <path id="Path_64" data-name="Path 64" d="M181.617,29.766a1.718,1.718,0,0,0,1.059-.408,2.281,2.281,0,0,0,.757-1.236v-.584a2.421,2.421,0,0,1-.614.181c-.236.035-.477.076-.724.116a4.365,4.365,0,0,0-.689.166,1.234,1.234,0,0,0-.515.322.84.84,0,0,0-.2.593.79.79,0,0,0,.251.623.973.973,0,0,0,.674.226m-.282.794a1.789,1.789,0,0,1-1.149-.377,1.4,1.4,0,0,1-.472-1.162,1.524,1.524,0,0,1,.221-.865,1.554,1.554,0,0,1,.586-.513,3.31,3.31,0,0,1,.8-.286c.289-.065.586-.121.887-.161a7.362,7.362,0,0,0,.746-.131.745.745,0,0,0,.365-.171.454.454,0,0,0,.1-.322.956.956,0,0,0-.3-.734,1.2,1.2,0,0,0-.86-.286,1.93,1.93,0,0,0-.643.11,1.233,1.233,0,0,0-.548.377,1.366,1.366,0,0,0-.292.7l-.892-.237a1.881,1.881,0,0,1,.8-1.337,2.714,2.714,0,0,1,1.568-.448,2.343,2.343,0,0,1,1.282.3,1.68,1.68,0,0,1,.666.8,3.034,3.034,0,0,1,.2,1.121V28.1c0,.366.005.754.019,1.167s.036.8.065,1.156h-.914c-.005-.266-.013-.522-.015-.779s0-.517,0-.789h-.127a2.752,2.752,0,0,1-.409.855,2.069,2.069,0,0,1-.7.623,2.048,2.048,0,0,1-.983.231" transform="translate(-174.382 -21.043)" fill="#b55a45"/>
          <path id="Path_65" data-name="Path 65" d="M222.4,30.421V27.263l-.013-2.4h.892l-.117,2.061h.15a2.962,2.962,0,0,1,.694-1.7,1.743,1.743,0,0,1,1.282-.5,1.721,1.721,0,0,1,.953.247,1.648,1.648,0,0,1,.568.653,3.028,3.028,0,0,1,.274.88,6.018,6.018,0,0,1,.075.94v2.977h-.988V27.575c0-.176-.01-.372-.028-.6a2.75,2.75,0,0,0-.128-.649,1.116,1.116,0,0,0-.34-.517.983.983,0,0,0-.666-.2,1.243,1.243,0,0,0-.875.332,2.11,2.11,0,0,0-.553.93,4.611,4.611,0,0,0-.2,1.377v2.172Z" transform="translate(-210.703 -21.044)" fill="#b55a45"/>
          <path id="Path_66" data-name="Path 66" d="M266.381,19.707a1.3,1.3,0,0,0,.714-.2,1.628,1.628,0,0,0,.51-.5,2.484,2.484,0,0,0,.312-.649,2.148,2.148,0,0,0,.108-.643V17.61a2.276,2.276,0,0,0-.093-.6,2.459,2.459,0,0,0-.284-.668,1.722,1.722,0,0,0-.5-.539,1.284,1.284,0,0,0-.746-.216,1.219,1.219,0,0,0-1.079.584,2.672,2.672,0,0,0-.382,1.493,2.6,2.6,0,0,0,.382,1.484,1.211,1.211,0,0,0,1.058.558m-.216.85a1.975,1.975,0,0,1-1.621-.774,3.392,3.392,0,0,1-.614-2.152,4.048,4.048,0,0,1,.264-1.528,2.3,2.3,0,0,1,.757-1.016,1.952,1.952,0,0,1,1.184-.367,1.707,1.707,0,0,1,.965.257,1.846,1.846,0,0,1,.623.678,3.391,3.391,0,0,1,.345.99h.161c-.058-.382-.106-.744-.146-1.1a8.833,8.833,0,0,1-.058-.925V12.97h.988L269,17.782l.01,2.634h-.892l.076-1.644h-.151a2.757,2.757,0,0,1-.644,1.313,1.643,1.643,0,0,1-1.236.472" transform="translate(-246.061 -11.039)" fill="#b55a45"/>
          <path id="Path_67" data-name="Path 67" d="M309.374,28.447a1.5,1.5,0,0,0,.988-.287.937.937,0,0,0,.344-.764,1.054,1.054,0,0,0-.355-.824,1.463,1.463,0,0,0-1.01-.317,1.517,1.517,0,0,0-1.011.312.993.993,0,0,0-.365.794.965.965,0,0,0,.37.784,1.6,1.6,0,0,0,1.038.3m-.141,3.62a4.6,4.6,0,0,0,1.6-.2.665.665,0,0,0,.472-.628.607.607,0,0,0-.133-.418.752.752,0,0,0-.345-.2,2.1,2.1,0,0,0-.429-.075c-.148-.009-.279-.015-.393-.015h-1.3a1.954,1.954,0,0,0-.828.387.645.645,0,0,0-.226.483.493.493,0,0,0,.209.432,1.293,1.293,0,0,0,.566.191,7.592,7.592,0,0,0,.8.04m.01.84a4.349,4.349,0,0,1-1.928-.312.963.963,0,0,1-.574-.88.984.984,0,0,1,.375-.794,2.371,2.371,0,0,1,1.172-.433v-.16c-.787.005-1.182-.181-1.182-.569a.583.583,0,0,1,.289-.482,2.83,2.83,0,0,1,.958-.357v-.171a1.362,1.362,0,0,1-1.011-.427,1.443,1.443,0,0,1-.345-.99,1.548,1.548,0,0,1,.652-1.308,2.9,2.9,0,0,1,1.787-.487h2.677v.84l-1.763-.252v.161q1.3.264,1.3,1.257a1.312,1.312,0,0,1-.6,1.116,2.958,2.958,0,0,1-1.714.422c-.108,0-.216-.005-.33-.01a2.962,2.962,0,0,1-.4-.055q-.686.332-.686.573a.185.185,0,0,0,.143.171,1.544,1.544,0,0,0,.355.075,3.836,3.836,0,0,0,.414.02h1.408c.127,0,.3.01.52.03a2.68,2.68,0,0,1,.661.166,1.331,1.331,0,0,1,.558.427,1.255,1.255,0,0,1,.226.8,1.3,1.3,0,0,1-.756,1.241,4.936,4.936,0,0,1-2.21.393" transform="translate(-282.5 -21.735)" fill="#b55a45"/>
          <path id="Path_68" data-name="Path 68" d="M352.372,29.751a1.61,1.61,0,0,0,.784-.2,1.555,1.555,0,0,0,.618-.653,2.541,2.541,0,0,0,.241-1.2,2.635,2.635,0,0,0-.246-1.231,1.608,1.608,0,0,0-.643-.694,1.709,1.709,0,0,0-.828-.221,1.651,1.651,0,0,0-.792.2,1.586,1.586,0,0,0-.623.659,2.529,2.529,0,0,0-.241,1.191,2.735,2.735,0,0,0,.241,1.237,1.582,1.582,0,0,0,.641.694,1.725,1.725,0,0,0,.847.216m-.03.809a2.815,2.815,0,0,1-1.392-.341,2.327,2.327,0,0,1-.951-.99,3.432,3.432,0,0,1-.344-1.6,3.3,3.3,0,0,1,.355-1.609,2.342,2.342,0,0,1,.957-.97,2.861,2.861,0,0,1,1.353-.322,2.755,2.755,0,0,1,1.37.337,2.334,2.334,0,0,1,.956.985,3.426,3.426,0,0,1,.35,1.624,3.3,3.3,0,0,1-.35,1.6,2.316,2.316,0,0,1-.95.964,2.856,2.856,0,0,1-1.353.322" transform="translate(-319.026 -21.043)" fill="#b55a45"/>
          <path id="Path_69" data-name="Path 69" d="M396.424,25.563a1.434,1.434,0,0,0-1.048.407,1.983,1.983,0,0,0-.53,1.131l3.009-.045a1.7,1.7,0,0,0-.435-1.111,1.342,1.342,0,0,0-1-.382m.1,5a2.53,2.53,0,0,1-2.006-.779,3.005,3.005,0,0,1-.681-2.057,3.756,3.756,0,0,1,.3-1.528,2.363,2.363,0,0,1,2.293-1.474,2.221,2.221,0,0,1,1.78.765,3.113,3.113,0,0,1,.574,2.237l-3.988.04a2.3,2.3,0,0,0,.463,1.478,1.593,1.593,0,0,0,1.28.508,1.611,1.611,0,0,0,.8-.171,1.164,1.164,0,0,0,.462-.437,1.573,1.573,0,0,0,.2-.559l.892.146a2.129,2.129,0,0,1-.736,1.328,2.439,2.439,0,0,1-1.626.5" transform="translate(-356.63 -21.043)" fill="#b55a45"/>
          <path id="Path_70" data-name="Path 70" d="M437.847,19.707a1.293,1.293,0,0,0,.714-.2,1.632,1.632,0,0,0,.511-.5,2.487,2.487,0,0,0,.312-.649,2.176,2.176,0,0,0,.108-.643V17.61a2.28,2.28,0,0,0-.094-.6,2.482,2.482,0,0,0-.284-.668,1.735,1.735,0,0,0-.5-.539,1.282,1.282,0,0,0-.746-.216,1.218,1.218,0,0,0-1.079.584,2.672,2.672,0,0,0-.382,1.493,2.6,2.6,0,0,0,.382,1.484,1.211,1.211,0,0,0,1.058.558m-.216.85a1.976,1.976,0,0,1-1.621-.774,3.4,3.4,0,0,1-.613-2.152,4.048,4.048,0,0,1,.263-1.528,2.3,2.3,0,0,1,.757-1.016,1.95,1.95,0,0,1,1.183-.367,1.707,1.707,0,0,1,.965.257,1.854,1.854,0,0,1,.624.678,3.44,3.44,0,0,1,.345.99h.16c-.058-.382-.106-.744-.146-1.1a8.81,8.81,0,0,1-.057-.925V12.97h.987l-.01,4.812.01,2.634h-.892l.075-1.644h-.151a2.748,2.748,0,0,1-.643,1.313,1.647,1.647,0,0,1-1.237.472" transform="translate(-392.004 -11.039)" fill="#b55a45"/>
          <path id="Path_71" data-name="Path 71" d="M494.845,31.285l-2-5.545h1.076l1.526,4.706h.117l1.536-4.706h1.053l-2.009,5.545Z" transform="translate(-440.903 -21.908)" fill="#b55a45"/>
          <path id="Path_72" data-name="Path 72" d="M536.4,29.751a1.609,1.609,0,0,0,.784-.2,1.554,1.554,0,0,0,.618-.653,2.54,2.54,0,0,0,.241-1.2,2.634,2.634,0,0,0-.246-1.231,1.607,1.607,0,0,0-.643-.694,1.709,1.709,0,0,0-.828-.221,1.65,1.65,0,0,0-.792.2,1.584,1.584,0,0,0-.623.659,2.527,2.527,0,0,0-.242,1.191,2.733,2.733,0,0,0,.242,1.237,1.58,1.58,0,0,0,.641.694,1.724,1.724,0,0,0,.847.216m-.03.809a2.815,2.815,0,0,1-1.392-.341,2.326,2.326,0,0,1-.951-.99,3.432,3.432,0,0,1-.344-1.6,3.3,3.3,0,0,1,.355-1.609,2.342,2.342,0,0,1,.957-.97,2.861,2.861,0,0,1,1.353-.322,2.754,2.754,0,0,1,1.37.337,2.328,2.328,0,0,1,.956.985,3.425,3.425,0,0,1,.35,1.624,3.3,3.3,0,0,1-.35,1.6,2.316,2.316,0,0,1-.95.964,2.856,2.856,0,0,1-1.353.322" transform="translate(-475.66 -21.043)" fill="#b55a45"/>
          <path id="Path_73" data-name="Path 73" d="M580.58,29.751a1.614,1.614,0,0,0,.784-.2,1.558,1.558,0,0,0,.618-.653,2.539,2.539,0,0,0,.242-1.2,2.626,2.626,0,0,0-.247-1.231,1.6,1.6,0,0,0-.643-.694,1.706,1.706,0,0,0-.827-.221,1.651,1.651,0,0,0-.792.2,1.581,1.581,0,0,0-.623.659,2.517,2.517,0,0,0-.242,1.191,2.721,2.721,0,0,0,.242,1.237,1.577,1.577,0,0,0,.641.694,1.722,1.722,0,0,0,.847.216m-.03.809a2.818,2.818,0,0,1-1.393-.341,2.324,2.324,0,0,1-.95-.99,3.431,3.431,0,0,1-.344-1.6,3.3,3.3,0,0,1,.354-1.609,2.349,2.349,0,0,1,.958-.97,2.858,2.858,0,0,1,1.353-.322,2.757,2.757,0,0,1,1.37.337,2.331,2.331,0,0,1,.955.985,3.413,3.413,0,0,1,.35,1.624,3.292,3.292,0,0,1-.35,1.6,2.314,2.314,0,0,1-.949.964,2.859,2.859,0,0,1-1.353.322" transform="translate(-513.264 -21.043)" fill="#b55a45"/>
          <path id="Path_74" data-name="Path 74" d="M623.7,30.478V27.6l-.013-2.675h.892l-.108,2.162h.151a3.805,3.805,0,0,1,.533-1.7,1.278,1.278,0,0,1,1.112-.588,1.912,1.912,0,0,1,.278.025,1.474,1.474,0,0,1,.325.086l-.055,1.031a1.767,1.767,0,0,0-.633-.131,1.132,1.132,0,0,0-1.016.633,4.276,4.276,0,0,0-.488,1.659v2.384Z" transform="translate(-552.271 -21.102)" fill="#b55a45"/>
          <path id="Path_75" data-name="Path 75" d="M669.722,31.247l-2-5.545H668.8l1.526,4.706h.118L671.98,25.7h1.053l-2.009,5.545Z" transform="translate(-589.748 -21.876)" fill="#b55a45"/>
          <path id="Path_76" data-name="Path 76" d="M711.047,25.527a1.431,1.431,0,0,0-1.048.408,1.984,1.984,0,0,0-.531,1.131l3.009-.045a1.693,1.693,0,0,0-.435-1.111,1.341,1.341,0,0,0-1-.382m.1,5a2.528,2.528,0,0,1-2.005-.779,3.008,3.008,0,0,1-.682-2.057,3.756,3.756,0,0,1,.3-1.528,2.363,2.363,0,0,1,2.292-1.474,2.222,2.222,0,0,1,1.78.764,3.108,3.108,0,0,1,.574,2.238l-3.987.04a2.291,2.291,0,0,0,.462,1.478,1.9,1.9,0,0,0,2.079.337,1.167,1.167,0,0,0,.463-.437,1.6,1.6,0,0,0,.2-.559l.892.146a2.128,2.128,0,0,1-.737,1.327,2.433,2.433,0,0,1-1.626.5" transform="translate(-624.42 -21.012)" fill="#b55a45"/>
          <path id="Path_77" data-name="Path 77" d="M751.686,30.44V27.559l-.013-2.675h.892l-.108,2.162h.151a3.8,3.8,0,0,1,.533-1.7,1.275,1.275,0,0,1,1.111-.589,1.922,1.922,0,0,1,.279.025,1.454,1.454,0,0,1,.324.086L754.8,25.9a1.767,1.767,0,0,0-.634-.131,1.131,1.131,0,0,0-1.015.633,4.261,4.261,0,0,0-.488,1.66V30.44Z" transform="translate(-661.202 -21.069)" fill="#b55a45"/>
          <path id="Path_78" data-name="Path 78" d="M783.7,19.671a1.222,1.222,0,0,0,1.058-.553,2.577,2.577,0,0,0,.38-1.488,2.656,2.656,0,0,0-.38-1.5,1.221,1.221,0,0,0-1.071-.579,1.292,1.292,0,0,0-.741.211,1.784,1.784,0,0,0-.51.538,2.551,2.551,0,0,0-.289.674,2.36,2.36,0,0,0-.091.6V17.7a2.195,2.195,0,0,0,.106.643,2.458,2.458,0,0,0,.312.644,1.679,1.679,0,0,0,.51.492,1.3,1.3,0,0,0,.717.2m.223.85a1.661,1.661,0,0,1-1.256-.488,2.721,2.721,0,0,1-.644-1.3h-.141l.076,1.644h-.892l.012-2.665-.012-4.781h.99v1.634a8.3,8.3,0,0,1-.06.95c-.04.347-.088.71-.146,1.081h.164a3.571,3.571,0,0,1,.337-.965,1.854,1.854,0,0,1,.628-.689,1.715,1.715,0,0,1,.968-.262,1.93,1.93,0,0,1,1.172.362,2.3,2.3,0,0,1,.762,1.016,4.069,4.069,0,0,1,.269,1.548,3.416,3.416,0,0,1-.6,2.137,1.961,1.961,0,0,1-1.625.774" transform="translate(-686.216 -11.009)" fill="#b55a45"/>
          <rect id="Rectangle_11" data-name="Rectangle 11" width="0.965" height="7.446" transform="translate(101.432 1.926)" fill="#b55a45"/>
          <path id="Path_79" data-name="Path 79" d="M842.57,14.451h.978v5.556h-.978Zm.492-.87c-.442,0-.666-.181-.666-.538s.224-.548.666-.548.666.181.666.548-.221.538-.666.538" transform="translate(-738.42 -10.635)" fill="#b55a45"/>
          <path id="Path_80" data-name="Path 80" d="M855.152,13.58c-.445,0-.667-.181-.667-.538s.221-.548.667-.548.666.181.666.548-.221.538-.666.538m-1.041,8.25a2.463,2.463,0,0,1-.679-.106l-.075-.89a1.611,1.611,0,0,0,1,.005c.209-.106.311-.377.311-.814V14.45h.978v5.47q0,1.908-1.536,1.911" transform="translate(-747.749 -10.634)" fill="#b55a45"/>
          <path id="Path_81" data-name="Path 81" d="M878.12,19.948V16.081h-.955V15.3l1.408.1v-.161a1.2,1.2,0,0,1-.741-.482,1.523,1.523,0,0,1,.208-1.89,1.683,1.683,0,0,1,1.22-.433,2.1,2.1,0,0,1,.746.126,1.642,1.642,0,0,1,.575.337l-.117.935a1.611,1.611,0,0,0-1.107-.473.789.789,0,0,0-.607.231.913.913,0,0,0-.221.658,1.047,1.047,0,0,0,.215.684.953.953,0,0,0,.506.337h1.234l-.01.819h-1.385v3.866Z" transform="translate(-768.014 -10.576)" fill="#b55a45"/>
          <path id="Path_82" data-name="Path 82" d="M923.678,8.17a1.813,1.813,0,0,0,.45,1.2,1.783,1.783,0,0,0,1.436.528,2.4,2.4,0,0,0,1.141-.262,3.121,3.121,0,0,0,.855-.684,9.055,9.055,0,0,1-.965-1.468,12.536,12.536,0,0,1-.732-1.625,3.922,3.922,0,0,0-1.619.955,1.917,1.917,0,0,0-.566,1.353m1.777,2.574a2.79,2.79,0,0,1-1.4-.337,2.409,2.409,0,0,1-.924-.91,2.536,2.536,0,0,1-.332-1.3,2.689,2.689,0,0,1,.684-1.79,4.518,4.518,0,0,1,2.129-1.257,8.439,8.439,0,0,1-.44-2.418,3.524,3.524,0,0,1,.252-1.328,2.281,2.281,0,0,1,.8-1.016A2.309,2.309,0,0,1,927.607,0a2.486,2.486,0,0,1,1.279.306,2.062,2.062,0,0,1,.8.825,2.384,2.384,0,0,1,.273,1.131,2.511,2.511,0,0,1-.673,1.675,4.946,4.946,0,0,1-2.311,1.276l-.111-.437A5.489,5.489,0,0,0,928.59,3.6a1.875,1.875,0,0,0,.493-1.247,1.509,1.509,0,0,0-.415-1.111,1.459,1.459,0,0,0-1.075-.412,1.367,1.367,0,0,0-.887.272,1.523,1.523,0,0,0-.487.714,2.879,2.879,0,0,0-.151.945,6.79,6.79,0,0,0,.228,1.594,11.925,11.925,0,0,0,.652,1.9,11.083,11.083,0,0,0,.99,1.8,5.882,5.882,0,0,0,1.242,1.353,2.281,2.281,0,0,0,1.413.517,1.326,1.326,0,0,0,.934-.322,1.086,1.086,0,0,0,.355-.84,1.836,1.836,0,0,0-.787-1.407,4.9,4.9,0,0,0-2.262-.92V5.389h3.614V6.3l-2.813-.377v.252a4.831,4.831,0,0,1,2.3,1.021,2.2,2.2,0,0,1,.809,1.684,1.777,1.777,0,0,1-.291,1.021,1.841,1.841,0,0,1-.777.643,2.548,2.548,0,0,1-1.053.216,2.945,2.945,0,0,1-1.493-.408,5.321,5.321,0,0,1-1.3-1.08,3.107,3.107,0,0,1-.87,1.041,2.368,2.368,0,0,1-1.5.432" transform="translate(-806.854 0)" fill="#b55a45"/>
          <path id="Path_83" data-name="Path 83" d="M1016.741,30.44V27.559l-.013-2.675h.892l-.108,2.162h.151a3.792,3.792,0,0,1,.533-1.7,1.274,1.274,0,0,1,1.111-.589,1.923,1.923,0,0,1,.279.025,1.48,1.48,0,0,1,.324.086l-.055,1.031a1.759,1.759,0,0,0-.633-.131,1.133,1.133,0,0,0-1.016.633,4.269,4.269,0,0,0-.487,1.66V30.44Z" transform="translate(-886.802 -21.069)" fill="#b55a45"/>
          <path id="Path_84" data-name="Path 84" d="M1046.61,25.527a1.434,1.434,0,0,0-1.048.408,1.984,1.984,0,0,0-.53,1.131l3.008-.045a1.692,1.692,0,0,0-.434-1.111,1.342,1.342,0,0,0-1-.382m.1,5a2.531,2.531,0,0,1-2.006-.779,3.006,3.006,0,0,1-.681-2.057,3.758,3.758,0,0,1,.3-1.528,2.363,2.363,0,0,1,2.293-1.474,2.224,2.224,0,0,1,1.78.764,3.112,3.112,0,0,1,.573,2.238l-3.987.04a2.291,2.291,0,0,0,.463,1.478,1.593,1.593,0,0,0,1.28.508,1.612,1.612,0,0,0,.8-.171,1.164,1.164,0,0,0,.462-.437,1.584,1.584,0,0,0,.2-.559l.892.146a2.126,2.126,0,0,1-.736,1.327,2.435,2.435,0,0,1-1.626.5" transform="translate(-910.032 -21.012)" fill="#b55a45"/>
          <path id="Path_85" data-name="Path 85" d="M1088.261,30.524a2.709,2.709,0,0,1-1.526-.393,2.287,2.287,0,0,1-.865-1.046,3.669,3.669,0,0,1-.274-1.432,3.724,3.724,0,0,1,.292-1.5,2.447,2.447,0,0,1,.87-1.071,2.531,2.531,0,0,1,1.45-.4,2.3,2.3,0,0,1,1.6.538,2.009,2.009,0,0,1,.666,1.352l-.913.206a1.391,1.391,0,0,0-.382-.885,1.291,1.291,0,0,0-.983-.372,1.455,1.455,0,0,0-1.161.538,2.353,2.353,0,0,0-.45,1.558,2.377,2.377,0,0,0,.444,1.553,1.538,1.538,0,0,0,1.242.528,1.356,1.356,0,0,0,1.051-.382,1.57,1.57,0,0,0,.409-.97l.9.161a2.157,2.157,0,0,1-.713,1.479,2.452,2.452,0,0,1-1.662.533" transform="translate(-945.419 -21.012)" fill="#b55a45"/>
          <path id="Path_86" data-name="Path 86" d="M1128.1,30.44V27.559l-.013-2.675h.892l-.108,2.162h.151a3.8,3.8,0,0,1,.533-1.7,1.275,1.275,0,0,1,1.111-.589,1.928,1.928,0,0,1,.279.025,1.454,1.454,0,0,1,.323.086l-.054,1.031a1.767,1.767,0,0,0-.634-.131,1.131,1.131,0,0,0-1.015.633,4.279,4.279,0,0,0-.488,1.66V30.44Z" transform="translate(-981.585 -21.069)" fill="#b55a45"/>
          <path id="Path_87" data-name="Path 87" d="M1157.984,25.527a1.434,1.434,0,0,0-1.048.408,1.993,1.993,0,0,0-.53,1.131l3.009-.045a1.7,1.7,0,0,0-.435-1.111,1.342,1.342,0,0,0-1-.382m.1,5a2.53,2.53,0,0,1-2.006-.779,3.006,3.006,0,0,1-.681-2.057,3.754,3.754,0,0,1,.3-1.528,2.362,2.362,0,0,1,2.293-1.474,2.223,2.223,0,0,1,1.78.764,3.111,3.111,0,0,1,.574,2.238l-3.987.04a2.292,2.292,0,0,0,.462,1.478,1.9,1.9,0,0,0,2.079.337,1.16,1.16,0,0,0,.462-.437,1.578,1.578,0,0,0,.2-.559l.893.146a2.129,2.129,0,0,1-.737,1.327,2.434,2.434,0,0,1-1.626.5" transform="translate(-1004.828 -21.012)" fill="#b55a45"/>
          <path id="Path_88" data-name="Path 88" d="M1198.959,29.73a1.717,1.717,0,0,0,1.059-.408,2.281,2.281,0,0,0,.756-1.236V27.5a2.422,2.422,0,0,1-.613.181c-.236.035-.478.076-.724.116a4.377,4.377,0,0,0-.689.166,1.248,1.248,0,0,0-.515.321.843.843,0,0,0-.2.594.791.791,0,0,0,.252.623.969.969,0,0,0,.673.226m-.282.794a1.779,1.779,0,0,1-1.148-.377,1.4,1.4,0,0,1-.473-1.161,1.517,1.517,0,0,1,.222-.865,1.551,1.551,0,0,1,.585-.513,3.307,3.307,0,0,1,.8-.287c.289-.064.586-.12.888-.16a7.465,7.465,0,0,0,.747-.131.745.745,0,0,0,.364-.171.454.454,0,0,0,.1-.322.955.955,0,0,0-.3-.734,1.2,1.2,0,0,0-.86-.287,1.913,1.913,0,0,0-.643.111,1.23,1.23,0,0,0-.547.377,1.364,1.364,0,0,0-.292.7l-.893-.237a1.884,1.884,0,0,1,.8-1.337,2.717,2.717,0,0,1,1.569-.448,2.343,2.343,0,0,1,1.282.3,1.677,1.677,0,0,1,.666.8,3.035,3.035,0,0,1,.2,1.121V28.06c0,.367.005.755.02,1.167s.035.8.065,1.156h-.915c-.005-.267-.013-.522-.015-.779s0-.518.005-.789h-.128a2.754,2.754,0,0,1-.409.855,2.087,2.087,0,0,1-.7.623,2.047,2.047,0,0,1-.983.231" transform="translate(-1040.287 -21.012)" fill="#b55a45"/>
          <path id="Path_89" data-name="Path 89" d="M1238.142,24.278a1.438,1.438,0,0,1-1.152-.437,1.88,1.88,0,0,1-.375-1.247V19.436h-.783l.009-.784h.43a.708.708,0,0,0,.445-.136.642.642,0,0,0,.169-.4l.085-.725h.6v1.227h1.548v.84h-1.548v3.1a.8.8,0,0,0,.216.643.839.839,0,0,0,.548.176,1.5,1.5,0,0,0,.4-.06,1.329,1.329,0,0,0,.407-.2v.965a3.063,3.063,0,0,1-.526.151,3.169,3.169,0,0,1-.472.04" transform="translate(-1073.291 -14.801)" fill="#b55a45"/>
          <path id="Path_90" data-name="Path 90" d="M1265.813,14.451h.978v5.556h-.978Zm.492-.87c-.442,0-.666-.181-.666-.538s.224-.548.666-.548.666.181.666.548-.222.538-.666.538" transform="translate(-1098.661 -10.635)" fill="#b55a45"/>
          <path id="Path_91" data-name="Path 91" d="M1285.621,25.527a1.435,1.435,0,0,0-1.049.408,2,2,0,0,0-.53,1.131l3.009-.045a1.693,1.693,0,0,0-.435-1.111,1.342,1.342,0,0,0-1-.382m.1,5a2.528,2.528,0,0,1-2.005-.779,3.007,3.007,0,0,1-.682-2.057,3.768,3.768,0,0,1,.3-1.528,2.364,2.364,0,0,1,2.293-1.474,2.224,2.224,0,0,1,1.78.764,3.111,3.111,0,0,1,.573,2.238l-3.987.04a2.293,2.293,0,0,0,.462,1.478,1.9,1.9,0,0,0,2.079.337,1.168,1.168,0,0,0,.463-.437,1.564,1.564,0,0,0,.2-.559l.893.146a2.124,2.124,0,0,1-.737,1.327,2.432,2.432,0,0,1-1.626.5" transform="translate(-1113.465 -21.012)" fill="#b55a45"/>
        </g>
      </g>
    </g>
  </g>
</svg>
