<svg xmlns="http://www.w3.org/2000/svg" xmlns:xlink="http://www.w3.org/1999/xlink" width="2211.203" height="1120.115" viewBox="0 0 2211.203 1120.115">
  <defs>
    <clipPath id="clip-path">
      <rect id="Rectangle_231" data-name="Rectangle 231" width="2211.203" height="1120.115" fill="#ffd8d8"/>
    </clipPath>
  </defs>
  <g id="Group_202" data-name="Group 202" clip-path="url(#clip-path)">
    <path id="thom-frijns-D-QcG8WrbzU-unsplash_lichter" d="M2211.2,159.692A159.7,159.7,0,0,0,1893.9,133.906a159.71,159.71,0,0,0-315.225,0,159.71,159.71,0,0,0-315.225,0,159.716,159.716,0,0,0-315.456,1.4,159.716,159.716,0,0,0-315.456-1.4,159.71,159.71,0,0,0-315.225,0A159.7,159.7,0,0,0,0,159.692V960.417A159.7,159.7,0,0,0,317.308,986.2a159.71,159.71,0,0,0,315.225,0,159.716,159.716,0,0,0,315.456-1.4,159.716,159.716,0,0,0,315.456,1.4,159.71,159.71,0,0,0,315.225,0,159.71,159.71,0,0,0,315.225,0A159.7,159.7,0,0,0,2211.2,960.417Z" transform="translate(0 0.003)" fill="#fff"/>
  </g>
</svg>
