<svg id="Group_204" data-name="Group 204" xmlns="http://www.w3.org/2000/svg" xmlns:xlink="http://www.w3.org/1999/xlink" width="180.846" height="32.906" viewBox="0 0 180.846 32.906">
  <defs>
    <clipPath id="clip-path">
      <rect id="Rectangle_57" data-name="Rectangle 57" width="180.846" height="32.906" fill="#a0ae9c"/>
    </clipPath>
  </defs>
  <g id="Group_87" data-name="Group 87" transform="translate(0 0)" clip-path="url(#clip-path)">
    <path id="Path_159" data-name="Path 159" d="M33.574,12.075h0A6.731,6.731,0,0,0,23.465,8.512a6.751,6.751,0,1,0-13.021.007A6.731,6.731,0,0,0,.333,12.075v0A6.732,6.732,0,0,0,6.413,20.9a6.754,6.754,0,0,0-1.225,1.28h0a6.753,6.753,0,1,0,11.767,6.37,6.73,6.73,0,0,0,.841,1.567h0A6.752,6.752,0,1,0,27.491,20.9a6.732,6.732,0,0,0,6.083-8.824" transform="translate(0 0)" fill="#a0ae9c"/>
    <path id="Path_160" data-name="Path 160" d="M74.4,12.075h0A6.731,6.731,0,0,0,64.291,8.512a6.751,6.751,0,1,0-13.021.007,6.731,6.731,0,0,0-10.111,3.557v0A6.732,6.732,0,0,0,47.239,20.9a6.754,6.754,0,0,0-1.225,1.28h0a6.753,6.753,0,1,0,11.767,6.37,6.73,6.73,0,0,0,.841,1.567h0A6.752,6.752,0,1,0,68.317,20.9,6.732,6.732,0,0,0,74.4,12.075" transform="translate(0.147 0)" fill="#a0ae9c"/>
    <path id="Path_161" data-name="Path 161" d="M115.226,12.075h0a6.731,6.731,0,0,0-10.108-3.563A6.751,6.751,0,1,0,92.1,8.519a6.731,6.731,0,0,0-10.111,3.557v0A6.732,6.732,0,0,0,88.065,20.9a6.755,6.755,0,0,0-1.225,1.28h0a6.753,6.753,0,1,0,11.767,6.37,6.73,6.73,0,0,0,.841,1.567h0a6.752,6.752,0,1,0,9.695-9.222,6.732,6.732,0,0,0,6.083-8.824" transform="translate(0.294 0)" fill="#a0ae9c"/>
    <path id="Path_162" data-name="Path 162" d="M156.052,12.075h0a6.731,6.731,0,0,0-10.108-3.563,6.751,6.751,0,1,0-13.021.007,6.731,6.731,0,0,0-10.111,3.557v0a6.732,6.732,0,0,0,6.081,8.825,6.754,6.754,0,0,0-1.225,1.28h0a6.753,6.753,0,1,0,11.767,6.37,6.731,6.731,0,0,0,.841,1.567h0a6.752,6.752,0,1,0,9.695-9.222,6.732,6.732,0,0,0,6.083-8.824" transform="translate(0.441 0)" fill="#a0ae9c"/>
    <path id="Path_163" data-name="Path 163" d="M173.507,6.75a6.721,6.721,0,0,0,.242,1.768,6.731,6.731,0,0,0-10.111,3.557v0a6.732,6.732,0,0,0,6.081,8.825,6.722,6.722,0,0,0-1.225,1.28h0a6.752,6.752,0,1,0,11.767,6.37V0a6.751,6.751,0,0,0-6.751,6.75" transform="translate(0.588 0)" fill="#a0ae9c"/>
  </g>
</svg>
